HIERARCHY
ROOT Hips
{
	OFFSET 0.000000 0.000000 0.000000
	CHANNELS 6 Xposition Yposition Zposition Zrotation Yrotation Xrotation 
	JOINT LHipJoint
	{
		OFFSET 0.000000 0.000000 0.000000
		CHANNELS 3 Zrotation Yrotation Xrotation
		JOINT LeftUpLeg
		{
			OFFSET 1.363060 -1.794630 0.839290
			CHANNELS 3 Zrotation Yrotation Xrotation
			JOINT LeftLeg
			{
				OFFSET 2.448110 -6.726130 0.000000
				CHANNELS 3 Zrotation Yrotation Xrotation
				JOINT LeftFoot
				{
					OFFSET 2.562200 -7.039590 0.000000
					CHANNELS 3 Zrotation Yrotation Xrotation
					JOINT LeftToeBase
					{
						OFFSET 0.157640 -0.433110 2.322550
						CHANNELS 3 Zrotation Yrotation Xrotation
						End Site
						{
							OFFSET 0.000000 0.000000 0.000000
						}
					}
				}
			}
		}
	}
	JOINT RHipJoint
	{
		OFFSET 0.000000 0.000000 0.000000
		CHANNELS 3 Zrotation Yrotation Xrotation
		JOINT RightUpLeg
		{
			OFFSET -1.305520 -1.794630 0.839290
			CHANNELS 3 Zrotation Yrotation Xrotation
			JOINT RightLeg
			{
				OFFSET -2.542530 -6.985550 0.000000
				CHANNELS 3 Zrotation Yrotation Xrotation
				JOINT RightFoot
				{
					OFFSET -2.568260 -7.056230 0.000000
					CHANNELS 3 Zrotation Yrotation Xrotation
					JOINT RightToeBase
					{
						OFFSET -0.164730 -0.452590 2.363150
						CHANNELS 3 Zrotation Yrotation Xrotation
						End Site
						{
							OFFSET 0.000000 0.000000 0.000000
						}
					}
				}
			}
		}
	}
}
MOTION
Frames: 34
Frame Time: 0.008333
3.382344 15.421542 0.486306 -3.126214 64.543012 14.716804 -14.339138 2.350616 -0.985597 4.613913 14.040930 -39.093360 6.751595 7.008634 110.974641 2.454392 12.629050 5.381776 2.303200 0.000000 -31.772700 8.501634 -1.882470 4.310545 15.587968 6.165957 -41.143313 2.057501 -3.393032 61.199716 -1.022068 8.200945 -34.704762 -1.839900 -0.000000 -29.716300
3.550911 15.493998 0.503324 -2.259599 64.190067 15.435228 -14.189128 2.061008 -0.956470 4.166059 13.430647 -40.278553 6.625521 6.914971 110.464199 2.474137 12.790543 5.415951 2.345900 -0.000000 -31.739500 8.616812 -1.882473 4.104873 14.739839 5.730754 -39.631960 2.140763 -3.260174 59.747349 -1.008880 8.159250 -34.543983 -1.824999 -0.000000 -31.465101
3.726610 15.579567 0.519445 -1.446457 63.892787 16.092445 -14.025349 1.781504 -0.910496 3.697688 12.852233 -41.420807 6.450549 6.803680 109.717838 2.519883 13.134384 5.596074 2.456500 -0.000000 -31.828201 8.720805 -1.886609 3.918053 13.852824 5.310064 -37.945661 2.232886 -3.098367 57.957692 -0.987449 8.086712 -34.217722 -1.784501 0.000000 -33.478900
3.910853 15.678655 0.534363 -0.684540 63.673161 16.692053 -13.851195 1.516297 -0.842007 3.212045 12.290870 -42.511701 6.228803 6.674343 108.720067 2.588170 13.646478 5.867729 2.626600 0.000000 -32.014200 8.811756 -1.896932 3.747872 12.937242 4.887760 -36.067947 2.334120 -2.905321 55.811242 -0.951128 8.024680 -33.710431 -1.735700 -0.000000 -35.242500
4.104731 15.791438 0.548091 0.051440 63.548210 17.260508 -13.668906 1.269931 -0.746651 2.700663 11.726977 -43.538875 5.962616 6.525236 107.454464 2.673436 14.296946 6.175109 2.843700 0.000000 -32.246200 8.891702 -1.915435 3.592718 11.992396 4.447040 -33.994442 2.438729 -2.680153 53.288612 -0.887805 8.001366 -32.940982 -1.688000 -0.000000 -36.954200
4.309009 15.917873 0.560889 0.792299 63.527761 17.831765 -13.479996 1.046574 -0.621446 2.154992 11.141284 -44.486894 5.655306 6.354367 105.904408 2.768045 15.037823 6.465242 3.089300 -0.000000 -32.432300 8.964571 -1.944010 3.453149 11.015690 3.980784 -31.732827 2.538246 -2.424180 50.382040 -0.786731 8.033248 -31.819607 -1.643200 -0.000000 -38.816701
4.524172 16.057420 0.573046 1.556277 63.612971 18.431756 -13.286102 0.849026 -0.463522 1.575672 10.518089 -45.341481 5.311442 6.160050 104.053631 2.863479 15.806570 6.710641 3.343600 0.000000 -32.558900 9.033930 -1.985060 3.333379 10.011402 3.499345 -29.303192 2.623299 -2.141173 47.103126 -0.643428 8.120722 -30.280382 -1.594700 -0.000000 -40.820500
4.750273 16.209204 0.584965 2.361320 63.794565 19.087309 -13.088122 0.679220 -0.272631 0.965179 9.848341 -46.087303 4.937326 5.941290 101.891870 2.951075 16.534987 6.900829 3.585900 0.000000 -32.612300 9.104978 -2.042011 3.238780 8.984316 3.020154 -26.738592 2.682334 -1.838101 43.476327 -0.457085 8.247129 -28.247637 -1.525800 0.000000 -43.095299
4.986962 16.372069 0.597062 3.217669 64.054664 19.816651 -12.886509 0.538252 -0.049996 0.329190 9.130140 -46.708957 4.539829 5.697518 99.409385 3.022867 17.157308 7.041491 3.798600 -0.000000 -32.551101 9.183365 -2.119943 3.175383 7.941453 2.565877 -24.081257 2.703600 -1.525322 39.538541 -0.232906 8.381110 -25.649798 -1.412000 0.000000 -45.868600
5.233513 16.544433 0.609554 4.119787 64.368478 20.623935 -12.681994 0.425584 0.201437 -0.318640 8.369697 -47.194866 4.127379 5.429619 96.604976 3.072752 17.618433 7.165737 3.972999 0.000000 -32.460900 9.273261 -2.224492 3.148218 6.896510 2.165248 -21.381825 2.679136 -1.216537 35.350618 0.015023 8.486619 -22.461843 -1.229800 0.000000 -48.974600
5.488828 16.724494 0.622643 5.058182 64.708297 21.504833 -12.475042 0.340277 0.476679 -0.965727 7.578146 -47.533774 3.708861 5.139352 93.482913 3.096623 17.881230 7.311191 4.107200 0.000000 -32.403400 9.378538 -2.361430 3.158114 5.861750 1.836539 -18.693498 2.604646 -0.927823 30.982552 0.268227 8.526009 -18.666725 -0.960000 0.000000 -52.416900
5.751445 16.910199 0.636372 6.022213 65.047706 22.447192 -12.266117 0.281273 0.769885 -1.602580 6.767813 -47.713976 3.293304 4.828889 90.053923 3.092296 17.927223 7.514029 4.203800 0.000000 -32.431100 9.502103 -2.534868 3.200906 4.845946 1.582519 -16.066931 2.482708 -0.675639 26.519703 0.504694 8.474332 -14.288485 -0.596600 0.000001 -55.981300
6.019652 17.099275 0.650794 7.009681 65.366458 23.440954 -12.055146 0.247413 1.074766 -2.226357 5.946542 -47.723835 2.889382 4.500632 86.335070 3.059583 17.757661 7.806446 4.269500 -0.000001 -32.635700 9.647178 -2.744850 3.264532 3.849911 1.375003 -13.551350 2.322327 -0.474651 22.062694 0.703390 8.329355 -9.385107 -0.148000 -0.000001 -59.435601
6.291427 17.289325 0.666001 8.037530 65.652622 24.484885 -11.841083 0.238135 1.385591 -2.844517 5.115050 -47.548895 2.504827 4.156691 82.347992 2.999330 17.388368 8.200686 4.307900 0.000001 -32.999500 9.818766 -2.986123 3.329819 2.862556 1.147300 -11.192173 2.137043 -0.335103 17.727075 0.847730 8.122781 -4.054060 0.368200 0.000000 -62.526400
6.564701 17.477787 0.682075 9.137194 65.904525 25.586300 -11.621960 0.253225 1.698314 -3.470948 4.264841 -47.172912 2.146164 3.799026 78.117598 2.913375 16.846764 8.701954 4.323200 -0.000000 -33.565601 10.024136 -3.246764 3.370490 1.864102 0.788547 -9.036668 1.942078 -0.261154 13.653526 0.928040 7.930677 1.551079 0.939800 -0.000001 -64.969200
6.837520 17.662127 0.698903 10.333436 66.130434 26.743596 -11.395925 0.291936 2.010799 -4.113050 3.382573 -46.581356 1.818516 3.430519 73.669777 2.804218 16.166932 9.315793 4.320300 0.000000 -34.397800 10.270113 -3.509001 3.358100 0.837916 0.166231 -7.129720 1.750245 -0.249430 9.994857 0.941674 7.858267 7.227925 1.576700 0.000000 -66.575201
7.108282 17.840160 0.716021 11.616936 66.345163 27.925319 -11.163489 0.352912 2.320778 -4.759533 2.461763 -45.763733 1.524737 3.056833 69.030571 2.673630 15.379108 10.032743 4.299300 0.000000 -35.457500 10.557019 -3.753061 3.272514 -0.215482 -0.812941 -5.491533 1.568912 -0.288247 6.880252 0.890250 7.983294 12.741919 2.304200 0.000000 -67.247400
7.375857 18.010218 0.732735 12.936487 66.565912 29.069399 -10.928563 0.433644 2.624110 -5.378953 1.507485 -44.719210 1.264339 2.686752 64.225858 2.523235 14.509901 10.842640 4.259400 0.000000 -36.638700 10.874721 -3.961597 3.108803 -1.274825 -2.149601 -4.104552 1.400081 -0.360278 4.389772 0.779393 8.297646 17.848013 3.120901 0.000000 -66.798600
7.639657 18.170879 0.747950 14.209028 66.810446 30.097482 -10.698846 0.530084 2.917665 -5.925575 0.532630 -43.467772 1.033552 2.330602 59.284731 2.355878 13.586943 11.750752 4.204000 0.000000 -37.944500 11.203432 -4.126051 2.877507 -2.301239 -3.752962 -2.922531 1.242132 -0.448396 2.541132 0.618952 8.678952 22.359019 3.958000 -0.000000 -65.409200
7.899674 18.321072 0.760684 15.358799 67.091716 30.947223 -10.483314 0.638550 3.198620 -6.361620 -0.447808 -42.039939 0.825121 1.997741 54.238186 2.175487 12.641144 12.758166 4.137400 -0.000001 -39.255900 11.520292 -4.247138 2.597903 -3.258416 -5.474465 -1.882173 1.091661 -0.540724 1.314804 0.423171 8.929808 26.140290 4.674300 -0.000001 -63.194400
8.156215 18.460030 0.770043 16.332192 67.418871 31.581414 -10.290297 0.755411 3.466231 -6.663619 -1.422758 -40.474062 0.630039 1.694518 49.121567 1.987532 11.709126 13.868297 4.067700 0.000000 -40.445700 11.804619 -4.332914 2.291160 -4.117252 -7.158095 -0.924093 0.944381 -0.632572 0.675580 0.206894 8.845565 29.128542 5.104200 0.000000 -60.420000
8.410028 18.587053 0.775328 17.093674 67.796540 31.981195 -10.126777 0.876687 3.721458 -6.820202 -2.384023 -38.811780 0.439358 1.423621 43.975869 1.798424 10.829114 15.082568 4.005300 -0.000000 -41.392800 12.039561 -4.394801 1.977316 -4.851920 -8.665972 -0.001474 0.796024 -0.724306 0.586208 -0.018452 8.275386 31.321083 5.116200 0.000000 -57.403500
8.662048 18.701613 0.776025 17.619330 68.227714 32.136802 -9.998188 0.997467 3.965452 -6.828896 -3.321756 -37.095645 0.246100 1.184337 38.852196 1.614499 10.033541 16.394994 3.959500 0.000000 -42.001101 12.212669 -4.443839 1.673703 -5.436024 -9.892859 0.915397 0.643327 -0.818571 1.015840 -0.246536 7.162042 32.762834 4.659300 0.000000 -54.464600
8.913309 18.803321 0.771774 17.888903 68.713806 32.037556 -9.908878 1.111963 4.198524 -6.694699 -4.219007 -35.369659 0.046599 0.973553 33.814642 1.440767 9.339431 17.785615 3.933700 0.000000 -42.221200 12.315429 -4.488565 1.394067 -5.840631 -10.774947 1.836803 0.485648 -0.918282 1.944938 -0.475043 5.551640 33.532446 3.775600 -0.000000 -51.880500
9.164677 18.891774 0.762762 17.916488 69.254475 31.699006 -9.858400 1.215663 4.421484 -6.443208 -5.058291 -33.674892 -0.159498 0.786335 28.935198 1.280362 8.749963 19.221712 3.927100 -0.000000 -42.076100 12.349753 -4.531536 1.142943 -6.059573 -11.333242 2.732917 0.327497 -1.027520 3.402244 -0.700070 3.622071 33.702843 2.612100 -0.000000 -49.794199
9.416984 18.966895 0.749032 17.666922 69.851010 31.084972 -9.852166 1.302726 4.625450 -6.089279 -5.778124 -32.059852 -0.369480 0.620083 24.310375 1.131171 8.211903 20.641661 3.909300 0.000001 -41.613200 12.311139 -4.579469 0.927310 -6.056539 -11.566689 3.607968 0.174719 -1.147372 5.339732 -0.923040 1.517263 33.438990 1.306500 0.000000 -48.424000
9.670628 19.028508 0.731459 17.175683 70.500711 30.221128 -9.886898 1.372440 4.803892 -5.689128 -6.320880 -30.568619 -0.580728 0.472161 20.032807 0.988214 7.655625 21.979119 3.841600 0.000000 -40.955900 12.212349 -4.632921 0.741189 -5.857487 -11.591811 4.409895 0.037679 -1.282105 7.782125 -1.136130 -0.517234 32.858401 0.050899 0.000000 -47.815500
9.925837 19.076618 0.710757 16.447621 71.199420 29.105207 -9.963437 1.424837 4.942923 -5.300442 -6.582521 -29.262704 -0.792040 0.342943 16.214865 0.840315 6.946557 23.142942 3.647600 -0.000000 -40.180600 12.062987 -4.697638 0.582087 -5.483333 -11.514673 5.097791 -0.075281 -1.434307 10.707652 -1.331369 -2.304879 32.115706 -1.022500 -0.000000 -48.042800
10.182087 19.111085 0.689186 15.662807 71.931186 27.903633 -10.060104 1.467684 5.042735 -5.032407 -6.554231 -28.151553 -1.008420 0.228875 12.882675 0.682762 6.042278 24.101428 3.304800 -0.000000 -39.540600 11.902194 -4.770407 0.433578 -5.074766 -11.527233 5.594893 -0.160675 -1.609726 14.144540 -1.491088 -3.608935 31.285440 -1.759700 -0.000000 -48.925400
10.438981 19.132188 0.668029 14.909355 72.683055 26.708321 -10.166935 1.504284 5.099052 -4.946674 -6.198736 -27.267297 -1.233789 0.128225 10.072293 0.509222 4.866131 24.809811 2.774300 0.000001 -39.155699 11.749714 -4.856139 0.295614 -4.707103 -11.701489 5.873414 -0.223866 -1.807136 18.020084 -1.609165 -4.378734 30.490124 -2.142000 0.000000 -50.407800
10.695754 19.140190 0.648912 14.351264 73.440902 25.692495 -10.263558 1.539493 5.122815 -5.086124 -5.590719 -26.589517 -1.470618 0.035471 7.730074 0.324734 3.471468 25.288685 2.095800 -0.000000 -39.229999 11.632167 -4.952407 0.164264 -4.479306 -12.083963 5.919714 -0.275685 -2.023211 22.254317 -1.684111 -4.609460 29.799003 -2.185500 0.000000 -52.315000
10.951707 19.135547 0.632729 14.097952 74.198546 24.982740 -10.336375 1.575405 5.127627 -5.446933 -4.826558 -26.096387 -1.716483 -0.053678 5.796470 0.137129 1.942328 25.561416 1.327500 0.000001 -39.799200 11.561975 -5.055837 0.040302 -4.431597 -12.652087 5.750119 -0.327678 -2.251266 26.739268 -1.723847 -4.391352 29.257442 -1.964000 -0.000000 -54.465300
11.206419 19.118671 0.619113 14.123253 74.963514 24.576470 -10.389732 1.610634 5.110361 -6.007270 -3.885663 -25.843465 -1.965768 -0.135716 4.327835 -0.054739 0.240573 25.593330 0.461600 0.000000 -40.688700 11.529407 -5.168320 -0.065027 -4.512430 -13.333456 5.392296 -0.388467 -2.482878 31.364575 -1.741877 -3.884400 28.879204 -1.586000 0.000000 -56.677200
11.459193 19.089995 0.608266 14.470946 75.743037 24.527228 -10.418206 1.647142 5.080461 -6.730896 -2.860444 -25.798881 -2.210696 -0.209941 3.273282 -0.240842 -1.522711 25.431052 -0.427200 0.000001 -41.850400 11.533557 -5.283991 -0.156080 -4.698692 -14.078025 4.894700 -0.464004 -2.714093 36.037655 -1.750460 -3.223879 28.644554 -1.134400 -0.000000 -58.775100
